<svg version="1.1" id="Layer_1" xmlns="http://www.w3.org/2000/svg" xmlns:xlink="http://www.w3.org/1999/xlink" x="0px" y="0px"
	 width="100%" viewBox="0 0 712 400" enable-background="new 0 0 712 400" xml:space="preserve">
<path fill="#FEFEFE" opacity="1.000000" stroke="none" 
	d="
M465.000000,401.000000 
	C310.034729,401.000000 155.569458,401.000000 1.052090,401.000000 
	C1.052090,267.731384 1.052090,134.462738 1.052090,1.097044 
	C238.215256,1.097044 475.430573,1.097044 712.822937,1.097044 
	C712.822937,134.333145 712.822937,267.666565 712.822937,401.000000 
	C630.462769,401.000000 547.981384,401.000000 465.000000,401.000000 
M259.799347,191.027252 
	C259.799347,208.140335 259.799347,225.253418 259.799347,242.570007 
	C264.048889,242.570007 267.788696,242.570007 271.699036,242.570007 
	C271.699036,214.810211 271.699036,187.299728 271.699036,159.650620 
	C265.384949,159.650620 259.434875,159.650620 253.294388,159.650620 
	C250.595078,178.338760 247.922623,196.840866 245.250183,215.342987 
	C241.879181,198.009750 239.510498,180.783432 236.929199,163.589020 
	C236.705063,162.095993 235.166534,159.705505 234.089813,159.620712 
	C228.827759,159.206345 223.515228,159.433060 218.170807,159.433060 
	C218.170807,187.466949 218.170807,215.006607 218.170807,242.485992 
	C221.942780,242.485992 225.344223,242.485992 229.276428,242.485992 
	C229.276428,223.909714 229.276428,205.660019 229.276428,187.410324 
	C229.620758,187.387161 229.965073,187.363998 230.309402,187.340851 
	C233.149811,205.791290 235.990204,224.241730 238.805862,242.531433 
	C242.896927,242.531433 246.331085,242.531433 249.936798,242.531433 
	C252.674683,224.863968 255.373520,207.448334 258.621399,190.014130 
	C258.982788,190.045456 259.344208,190.076767 259.799347,191.027252 
M149.500244,5.451416 
	C137.730545,5.451416 125.960831,5.451416 114.209686,5.451416 
	C114.209686,11.183967 114.209686,16.293612 114.209686,21.596333 
	C276.125000,21.596333 437.809601,21.596333 599.628784,21.596333 
	C599.628784,16.159935 599.628784,10.967441 599.628784,5.451459 
	C449.689484,5.451459 300.094879,5.451459 149.500244,5.451416 
M496.500000,378.971771 
	C369.116058,378.971771 241.732132,378.971771 114.272888,378.971771 
	C114.272888,384.551758 114.272888,389.620880 114.272888,394.728424 
	C276.225220,394.728424 437.898590,394.728424 599.664185,394.728424 
	C599.664185,389.399872 599.664185,384.336975 599.664185,378.971710 
	C565.415466,378.971710 531.457703,378.971710 496.500000,378.971771 
M422.734436,316.500153 
	C422.734436,299.405914 422.734436,282.311676 422.734436,265.227112 
	C418.415588,265.227112 414.820770,265.227112 410.855103,265.227112 
	C410.855103,280.662292 410.855103,295.835510 410.855103,311.008759 
	C410.531769,311.060699 410.208435,311.112671 409.885101,311.164612 
	C405.925232,295.813934 401.965363,280.463226 398.024506,265.186218 
	C392.372223,265.186218 387.092102,265.186218 381.515656,265.186218 
	C381.515656,292.807861 381.515656,320.202301 381.515656,347.858337 
	C385.410797,347.858337 389.114319,347.858337 393.191528,347.858337 
	C393.191528,328.888458 393.191528,310.211853 393.191528,291.535248 
	C393.535950,291.476135 393.880371,291.417023 394.224792,291.357910 
	C399.131653,310.217529 404.038483,329.077148 408.905792,347.784790 
	C413.631653,347.784790 418.028015,347.784790 422.734436,347.784790 
	C422.734436,337.445038 422.734436,327.472595 422.734436,316.500153 
M518.125061,313.585632 
	C516.207703,310.705902 514.290405,307.826141 512.815308,305.610626 
	C514.681396,302.414490 517.722473,299.359161 518.180054,295.956451 
	C519.030090,289.634796 518.926453,283.045685 518.182983,276.689240 
	C517.480835,270.685974 513.225403,266.582367 507.244324,265.917511 
	C498.541809,264.950195 489.735046,264.920807 480.768616,264.481476 
	C480.768616,292.791199 480.768616,320.333649 480.768616,347.985046 
	C485.050842,347.985046 489.016418,347.985046 493.562134,347.985046 
	C493.562134,336.086639 493.562134,324.341736 493.562134,312.689423 
	C502.886414,311.512451 505.695740,313.607635 506.018707,321.951111 
	C506.263397,328.271454 506.050018,334.608398 506.204285,340.933960 
	C506.262238,343.309845 506.782349,345.674469 507.069794,347.875671 
	C511.920563,347.875671 516.017090,347.875671 519.945312,347.875671 
	C519.719360,342.817780 519.519958,338.033112 519.288330,333.250061 
	C518.983337,326.952667 518.653137,320.656494 518.125061,313.585632 
M150.375504,278.512085 
	C150.375504,301.623291 150.375504,324.734467 150.375504,347.793274 
	C151.408051,347.974701 151.893631,348.132965 152.379669,348.134369 
	C158.877213,348.153259 165.375885,348.225616 171.872177,348.135468 
	C182.358994,347.989990 189.280777,342.291382 189.646164,331.821808 
	C190.232574,315.020264 190.153595,298.173065 189.662491,281.365417 
	C189.402405,272.464172 184.551437,266.667603 176.301132,265.713959 
	C167.857986,264.738007 159.214233,265.497742 150.375519,265.497742 
	C150.375519,269.564758 150.375519,273.541229 150.375504,278.512085 
M343.622070,348.113068 
	C361.085205,353.857666 372.760345,345.528687 372.786804,327.299225 
	C372.797668,319.811646 372.853119,312.323334 372.771515,304.836639 
	C372.679169,296.364075 373.060394,287.826599 372.139862,279.437561 
	C370.923309,268.350464 363.318420,262.956879 351.334320,263.460724 
	C340.499786,263.916229 333.373901,270.370758 333.101532,281.280090 
	C332.682312,298.073151 332.804016,314.886810 333.060150,331.686188 
	C333.167664,338.736023 336.225311,344.532227 343.622070,348.113068 
M217.361023,99.758400 
	C220.238998,99.311569 221.003586,100.579552 220.965424,103.388466 
	C220.814529,114.494049 220.903473,125.602890 220.903473,136.909439 
	C225.419556,136.909439 229.474030,136.909439 233.552490,136.909439 
	C233.552490,109.139259 233.552490,81.633812 233.552490,54.221859 
	C229.232819,54.221859 225.289856,54.221859 220.731415,54.221859 
	C220.731415,65.479866 220.731415,76.509567 220.731415,87.515213 
	C215.848526,87.515213 211.596710,87.515213 206.902161,87.515213 
	C206.902161,76.314987 206.902161,65.403862 206.902161,54.241119 
	C202.400543,54.241119 198.347198,54.241119 194.245667,54.241119 
	C194.245667,81.990334 194.245667,109.502853 194.245667,136.748108 
	C198.658173,136.748108 202.709824,136.748108 207.120132,136.748108 
	C207.120132,124.244164 207.120132,112.161049 207.120132,99.758171 
	C210.457504,99.758171 213.427750,99.758171 217.361023,99.758400 
M437.117706,297.592773 
	C434.437836,314.287323 431.757996,330.981903 429.052094,347.838562 
	C433.308441,347.838562 437.202454,347.838562 441.233124,347.838562 
	C442.131165,342.404297 442.984161,337.242676 443.796570,332.326477 
	C449.040314,332.326477 453.624481,332.326477 458.334717,332.326477 
	C459.220917,337.767700 460.061371,342.928070 460.862091,347.844543 
	C465.636200,347.844543 469.733337,347.844543 474.018036,347.844543 
	C469.488129,320.132904 465.012268,292.751953 460.508423,265.199646 
	C454.397095,265.199646 448.645782,265.199646 442.572693,265.199646 
	C440.776367,275.804779 439.004303,286.266876 437.117706,297.592773 
M149.422150,170.132431 
	C146.083298,182.047134 149.432419,192.078979 158.048187,200.598480 
	C161.713501,204.222839 165.595108,207.640549 169.104233,211.407593 
	C173.182861,215.786011 174.916031,221.078735 173.659744,227.055099 
	C172.959274,230.387497 170.801346,232.200134 167.255981,232.136734 
	C163.855957,232.075928 161.421066,230.700027 160.820847,227.156616 
	C160.352493,224.391815 160.145020,221.582825 159.815613,218.741638 
	C155.917725,218.741638 152.058289,218.741638 148.081619,218.741638 
	C148.081619,221.809891 147.902740,224.474655 148.113129,227.108337 
	C148.944168,237.511383 155.415558,243.832199 165.388245,244.143677 
	C178.097534,244.540619 185.219574,239.306824 186.870438,228.240387 
	C188.415176,217.885406 185.871124,208.774582 178.346191,201.269821 
	C174.109558,197.044540 169.729523,192.955765 165.632309,188.600204 
	C162.113968,184.860046 160.998703,180.227921 161.826111,175.170700 
	C162.404190,171.637405 164.867432,169.478897 168.076279,170.239182 
	C170.317459,170.770218 172.629303,173.053223 173.861603,175.165176 
	C174.911209,176.964005 174.464813,179.635727 174.726227,182.409164 
	C176.863159,182.409164 178.819046,182.409164 180.774933,182.409164 
	C182.717896,182.409164 184.660873,182.409164 186.552673,182.409164 
	C187.557663,168.595749 183.358353,161.111115 173.607559,158.625305 
	C162.753464,155.858231 154.024170,159.804901 149.422150,170.132431 
M242.106216,263.453979 
	C227.235367,263.447510 220.891663,269.791687 220.828949,284.754517 
	C220.808701,289.584412 220.808075,294.414520 220.829102,299.244354 
	C220.878418,310.567657 220.596436,321.906891 221.113297,333.209259 
	C221.555405,342.877106 228.226776,348.999725 237.890747,349.771881 
	C248.594437,350.627075 256.697998,345.915619 258.532898,336.630127 
	C259.767609,330.381836 259.422485,323.821320 259.778259,317.504486 
	C255.011230,317.504486 251.122009,317.504486 247.009964,317.504486 
	C247.009964,322.080719 247.017258,326.238678 247.007950,330.396545 
	C246.998276,334.717682 245.012360,337.578522 240.552094,337.626892 
	C236.034943,337.675873 234.022644,334.710388 234.005905,330.462372 
	C233.943573,314.642090 233.876846,298.820557 234.025391,283.001495 
	C234.072815,277.950592 236.746994,275.340851 240.781357,275.494080 
	C244.788727,275.646271 246.884705,278.293365 247.016281,283.531952 
	C247.093643,286.612213 247.030411,289.695984 247.030411,292.693878 
	C251.595871,292.693878 255.356552,292.693878 259.070099,292.693878 
	C261.340118,274.447021 256.477356,265.758698 242.106216,263.453979 
M301.152435,159.364258 
	C294.872406,159.364258 288.592377,159.364258 282.272186,159.364258 
	C282.272186,187.375351 282.272186,214.928741 282.272186,242.453644 
	C286.651062,242.453644 290.709717,242.453644 295.196198,242.453644 
	C295.196198,231.172989 295.196198,220.247955 295.196198,208.986313 
	C297.926605,208.986313 300.232666,209.027237 302.536896,208.979248 
	C312.710785,208.767303 318.834503,203.715942 320.277863,193.690689 
	C320.960663,188.947861 320.879761,184.063126 320.798889,179.248489 
	C320.582977,166.394073 314.905060,160.476486 301.152435,159.364258 
M369.059998,184.500000 
	C369.059998,203.881470 369.059998,223.262939 369.059998,242.520508 
	C381.444519,242.520508 393.030273,242.520508 404.653809,242.520508 
	C404.653809,238.501282 404.653809,234.792191 404.653809,230.680893 
	C397.035339,230.680893 389.779114,230.680893 382.359039,230.680893 
	C382.359039,222.044235 382.359039,213.818359 382.359039,205.079895 
	C388.333771,205.079895 394.064148,205.079895 399.740601,205.079895 
	C399.740601,200.841690 399.740601,197.127136 399.740601,192.869965 
	C393.677368,192.869965 387.959930,192.869965 382.481506,192.869965 
	C382.481506,185.422043 382.481506,178.534592 382.481506,171.265594 
	C390.143982,171.265594 397.424042,171.265594 404.679474,171.265594 
	C404.679474,167.121460 404.679474,163.384338 404.679474,159.658813 
	C392.636932,159.658813 380.938690,159.658813 369.059998,159.658813 
	C369.059998,167.865387 369.059998,175.682693 369.059998,184.500000 
M244.725494,54.010624 
	C244.479736,55.253017 244.021561,56.495064 244.019531,57.737854 
	C243.978058,83.208931 243.985062,108.680092 244.003021,134.151215 
	C244.003677,135.092316 244.212402,136.033279 244.298874,136.761414 
	C256.318115,136.761414 268.027527,136.761414 279.560913,136.761414 
	C279.560913,132.770508 279.560913,129.200943 279.560913,125.177826 
	C271.964081,125.177826 264.718994,125.177826 257.356262,125.177826 
	C257.356262,116.483070 257.356262,108.263367 257.356262,99.545868 
	C263.383209,99.545868 269.120819,99.545868 274.826599,99.545868 
	C274.826599,95.431084 274.826599,91.819817 274.826599,87.702782 
	C268.897675,87.702782 263.171173,87.702782 257.280762,87.702782 
	C257.280762,80.276535 257.280762,73.364616 257.280762,65.848114 
	C264.861969,65.848114 272.240692,65.848114 279.528534,65.848114 
	C279.528534,61.516315 279.528534,57.804302 279.528534,53.910351 
	C267.988525,53.910351 256.840454,53.910351 244.725494,54.010624 
M536.247864,306.341705 
	C537.039673,310.879150 538.340820,315.396942 538.516418,319.958099 
	C538.873657,329.237823 538.623230,338.540955 538.623230,347.851562 
	C543.169678,347.851562 547.252808,347.851562 551.771790,347.851562 
	C551.771790,342.932190 551.816345,338.301727 551.763062,333.672424 
	C551.629150,322.041046 551.349182,310.532959 556.039551,299.348602 
	C559.949219,290.025940 562.604492,280.176147 565.783936,270.549469 
	C566.343262,268.856049 566.748230,267.111633 567.343201,264.961548 
	C565.407227,264.961548 563.927673,264.964661 562.448181,264.961060 
	C554.687317,264.942139 554.691162,264.942688 552.534180,272.211853 
	C550.376892,279.482269 548.210693,286.750031 545.678223,295.263580 
	C542.420349,284.265778 539.564758,274.625946 536.749878,265.123444 
	C531.843811,265.123444 527.538452,265.123444 522.675720,265.123444 
	C527.194275,278.806610 531.611084,292.181793 536.247864,306.341705 
M290.643066,333.492798 
	C290.643066,314.742645 290.643066,295.992493 290.643066,276.809845 
	C295.585419,276.809845 299.833923,276.809845 304.149078,276.809845 
	C304.149078,272.623047 304.149078,268.882690 304.149078,265.181000 
	C290.593231,265.181000 277.347565,265.181000 264.213776,265.181000 
	C264.213776,269.223907 264.213776,272.957062 264.213776,277.149963 
	C268.784302,277.149963 273.021271,277.149963 277.713898,277.149963 
	C277.713898,301.039185 277.713898,324.454010 277.713898,347.786133 
	C282.253326,347.786133 286.313477,347.786133 290.643036,347.786133 
	C290.643036,343.109650 290.643036,338.798889 290.643066,333.492798 
M173.464157,102.500290 
	C173.464157,90.424042 173.464157,78.347786 173.464157,65.853981 
	C178.460526,65.853981 182.709656,65.853981 187.013428,65.853981 
	C187.013428,61.666199 187.013428,57.910389 187.013428,54.198021 
	C173.494781,54.198021 160.249481,54.198021 147.139893,54.198021 
	C147.139893,58.239510 147.139893,61.971653 147.139893,66.148895 
	C151.729614,66.148895 155.975372,66.148895 160.638596,66.148895 
	C160.638596,90.031036 160.638596,113.450478 160.638596,137.014664 
	C165.035538,137.014664 168.998672,137.014664 173.464096,137.014664 
	C173.464096,125.738785 173.464096,114.619545 173.464157,102.500290 
M362.666656,242.040268 
	C362.666656,238.437881 362.666656,234.835495 362.666656,230.798035 
	C355.385529,230.798035 348.459747,230.798035 340.964844,230.798035 
	C340.964844,206.828430 340.964844,183.297516 340.964844,159.810760 
	C336.315918,159.810760 332.262421,159.810760 328.310181,159.810760 
	C328.310181,187.612289 328.310181,215.033920 328.310181,242.654434 
	C339.725311,242.654434 350.851746,242.654434 362.666656,242.040268 
M207.917114,170.540115 
	C207.917114,167.060577 207.917114,163.581039 207.917114,159.764908 
	C203.517670,159.764908 199.442688,159.764908 195.197845,159.764908 
	C195.197845,187.417450 195.197845,214.959549 195.197845,242.410645 
	C199.587524,242.410645 203.637833,242.410645 207.917114,242.410645 
	C207.917114,218.510574 207.917114,195.020233 207.917114,170.540115 
M324.024780,319.500000 
	C324.024780,301.441437 324.024780,283.382904 324.024780,265.258789 
	C319.374878,265.258789 315.320892,265.258789 311.315796,265.258789 
	C311.315796,293.039185 311.315796,320.529541 311.315796,347.765808 
	C315.723663,347.765808 319.782684,347.765808 324.024780,347.765808 
	C324.024780,338.426453 324.024780,329.463226 324.024780,319.500000 
M211.929504,306.500000 
	C211.929504,292.746765 211.929504,278.993500 211.929504,265.324158 
	C207.169113,265.324158 203.111206,265.324158 199.212036,265.324158 
	C199.212036,293.091003 199.212036,320.495575 199.212036,347.779602 
	C203.575439,347.779602 207.630798,347.779602 211.929504,347.779602 
	C211.929504,334.106720 211.929504,320.803375 211.929504,306.500000 
z"/>
<path fill="#0C0C0C" opacity="1.000000" stroke="none" 
	d="
M150.000244,5.451437 
	C300.094879,5.451459 449.689484,5.451459 599.628784,5.451459 
	C599.628784,10.967441 599.628784,16.159935 599.628784,21.596333 
	C437.809601,21.596333 276.125000,21.596333 114.209686,21.596333 
	C114.209686,16.293612 114.209686,11.183967 114.209686,5.451416 
	C125.960831,5.451416 137.730545,5.451416 150.000244,5.451437 
z"/>
<path fill="#040404" opacity="1.000000" stroke="none" 
	d="
M497.000000,378.971741 
	C531.457703,378.971710 565.415466,378.971710 599.664185,378.971710 
	C599.664185,384.336975 599.664185,389.399872 599.664185,394.728424 
	C437.898590,394.728424 276.225220,394.728424 114.272888,394.728424 
	C114.272888,389.620880 114.272888,384.551758 114.272888,378.971771 
	C241.732132,378.971771 369.116058,378.971771 497.000000,378.971741 
z"/>
<path fill="#060606" opacity="1.000000" stroke="none" 
	d="
M258.072357,190.032700 
	C255.373520,207.448334 252.674683,224.863968 249.936798,242.531433 
	C246.331085,242.531433 242.896927,242.531433 238.805862,242.531433 
	C235.990204,224.241730 233.149811,205.791290 230.309402,187.340851 
	C229.965073,187.363998 229.620758,187.387161 229.276428,187.410324 
	C229.276428,205.660019 229.276428,223.909714 229.276428,242.485992 
	C225.344223,242.485992 221.942780,242.485992 218.170807,242.485992 
	C218.170807,215.006607 218.170807,187.466949 218.170807,159.433060 
	C223.515228,159.433060 228.827759,159.206345 234.089813,159.620712 
	C235.166534,159.705505 236.705063,162.095993 236.929199,163.589020 
	C239.510498,180.783432 241.879181,198.009750 245.250183,215.342987 
	C247.922623,196.840866 250.595078,178.338760 253.294388,159.650620 
	C259.434875,159.650620 265.384949,159.650620 271.699036,159.650620 
	C271.699036,187.299728 271.699036,214.810211 271.699036,242.570007 
	C267.788696,242.570007 264.048889,242.570007 259.799347,242.570007 
	C259.799347,225.253418 259.799347,208.140335 259.882263,190.158966 
	C259.965210,187.265930 259.965210,185.241165 259.965210,183.216415 
	C259.660156,183.186661 259.355072,183.156891 259.050018,183.127121 
	C258.724121,185.428986 258.398254,187.730835 258.072357,190.032700 
z"/>
<path fill="#080808" opacity="1.000000" stroke="none" 
	d="
M422.734436,317.000183 
	C422.734436,327.472595 422.734436,337.445038 422.734436,347.784790 
	C418.028015,347.784790 413.631653,347.784790 408.905792,347.784790 
	C404.038483,329.077148 399.131653,310.217529 394.224792,291.357910 
	C393.880371,291.417023 393.535950,291.476135 393.191528,291.535248 
	C393.191528,310.211853 393.191528,328.888458 393.191528,347.858337 
	C389.114319,347.858337 385.410797,347.858337 381.515656,347.858337 
	C381.515656,320.202301 381.515656,292.807861 381.515656,265.186218 
	C387.092102,265.186218 392.372223,265.186218 398.024506,265.186218 
	C401.965363,280.463226 405.925232,295.813934 409.885101,311.164612 
	C410.208435,311.112671 410.531769,311.060699 410.855103,311.008759 
	C410.855103,295.835510 410.855103,280.662292 410.855103,265.227112 
	C414.820770,265.227112 418.415588,265.227112 422.734436,265.227112 
	C422.734436,282.311676 422.734436,299.405914 422.734436,317.000183 
z"/>
<path fill="#070707" opacity="1.000000" stroke="none" 
	d="
M518.229431,313.972717 
	C518.653137,320.656494 518.983337,326.952667 519.288330,333.250061 
	C519.519958,338.033112 519.719360,342.817780 519.945312,347.875671 
	C516.017090,347.875671 511.920563,347.875671 507.069794,347.875671 
	C506.782349,345.674469 506.262238,343.309845 506.204285,340.933960 
	C506.050018,334.608398 506.263397,328.271454 506.018707,321.951111 
	C505.695740,313.607635 502.886414,311.512451 493.562134,312.689423 
	C493.562134,324.341736 493.562134,336.086639 493.562134,347.985046 
	C489.016418,347.985046 485.050842,347.985046 480.768616,347.985046 
	C480.768616,320.333649 480.768616,292.791199 480.768616,264.481476 
	C489.735046,264.920807 498.541809,264.950195 507.244324,265.917511 
	C513.225403,266.582367 517.480835,270.685974 518.182983,276.689240 
	C518.926453,283.045685 519.030090,289.634796 518.180054,295.956451 
	C517.722473,299.359161 514.681396,302.414490 512.815308,305.610626 
	C514.290405,307.826141 516.207703,310.705902 518.229431,313.972717 
M497.401184,300.273529 
	C505.439484,299.607025 507.340302,295.842712 505.901733,283.439240 
	C505.224762,277.602356 502.255096,276.092804 493.468689,277.422119 
	C493.468689,284.111084 493.354340,290.883514 493.603912,297.642487 
	C493.637604,298.554535 495.501190,299.399048 497.401184,300.273529 
z"/>
<path fill="#070707" opacity="1.000000" stroke="none" 
	d="
M150.375519,278.014893 
	C150.375519,273.541229 150.375519,269.564758 150.375519,265.497742 
	C159.214233,265.497742 167.857986,264.738007 176.301132,265.713959 
	C184.551437,266.667603 189.402405,272.464172 189.662491,281.365417 
	C190.153595,298.173065 190.232574,315.020264 189.646164,331.821808 
	C189.280777,342.291382 182.358994,347.989990 171.872177,348.135468 
	C165.375885,348.225616 158.877213,348.153259 152.379669,348.134369 
	C151.893631,348.132965 151.408051,347.974701 150.375504,347.793274 
	C150.375504,324.734467 150.375504,301.623291 150.375519,278.014893 
M176.821869,284.106323 
	C175.324844,277.135498 172.954605,275.910095 163.691223,277.425812 
	C163.691223,296.898163 163.691223,316.395050 163.691223,335.849304 
	C174.734116,337.225342 176.956284,335.353638 176.963409,324.851288 
	C176.972443,311.565186 176.933060,298.279083 176.821869,284.106323 
z"/>
<path fill="#050505" opacity="1.000000" stroke="none" 
	d="
M343.259338,347.985870 
	C336.225311,344.532227 333.167664,338.736023 333.060150,331.686188 
	C332.804016,314.886810 332.682312,298.073151 333.101532,281.280090 
	C333.373901,270.370758 340.499786,263.916229 351.334320,263.460724 
	C363.318420,262.956879 370.923309,268.350464 372.139862,279.437561 
	C373.060394,287.826599 372.679169,296.364075 372.771515,304.836639 
	C372.853119,312.323334 372.797668,319.811646 372.786804,327.299225 
	C372.760345,345.528687 361.085205,353.857666 343.259338,347.985870 
M359.772156,300.501953 
	C359.610626,294.353180 359.453735,288.204285 359.285919,282.055664 
	C359.169342,277.784485 356.767822,275.469116 352.695496,275.510651 
	C348.261658,275.555847 346.115295,278.456818 346.097748,282.704956 
	C346.031647,298.694885 346.032135,314.685608 346.119080,330.675385 
	C346.140900,334.690399 348.240509,337.524261 352.392212,337.693298 
	C356.732269,337.870056 359.225342,335.395447 359.314148,330.946136 
	C359.510040,321.132019 359.624481,311.316284 359.772156,300.501953 
z"/>
<path fill="#050505" opacity="1.000000" stroke="none" 
	d="
M216.879501,99.758286 
	C213.427750,99.758171 210.457504,99.758171 207.120132,99.758171 
	C207.120132,112.161049 207.120132,124.244164 207.120132,136.748108 
	C202.709824,136.748108 198.658173,136.748108 194.245667,136.748108 
	C194.245667,109.502853 194.245667,81.990334 194.245667,54.241119 
	C198.347198,54.241119 202.400543,54.241119 206.902161,54.241119 
	C206.902161,65.403862 206.902161,76.314987 206.902161,87.515213 
	C211.596710,87.515213 215.848526,87.515213 220.731415,87.515213 
	C220.731415,76.509567 220.731415,65.479866 220.731415,54.221859 
	C225.289856,54.221859 229.232819,54.221859 233.552490,54.221859 
	C233.552490,81.633812 233.552490,109.139259 233.552490,136.909439 
	C229.474030,136.909439 225.419556,136.909439 220.903473,136.909439 
	C220.903473,125.602890 220.814529,114.494049 220.965424,103.388466 
	C221.003586,100.579552 220.238998,99.311569 216.879501,99.758286 
z"/>
<path fill="#060606" opacity="1.000000" stroke="none" 
	d="
M437.174988,297.160858 
	C439.004303,286.266876 440.776367,275.804779 442.572693,265.199646 
	C448.645782,265.199646 454.397095,265.199646 460.508423,265.199646 
	C465.012268,292.751953 469.488129,320.132904 474.018036,347.844543 
	C469.733337,347.844543 465.636200,347.844543 460.862091,347.844543 
	C460.061371,342.928070 459.220917,337.767700 458.334717,332.326477 
	C453.624481,332.326477 449.040314,332.326477 443.796570,332.326477 
	C442.984161,337.242676 442.131165,342.404297 441.233124,347.838562 
	C437.202454,347.838562 433.308441,347.838562 429.052094,347.838562 
	C431.757996,330.981903 434.437836,314.287323 437.174988,297.160858 
M455.884247,313.441101 
	C454.408813,303.323792 452.933380,293.206451 451.457916,283.089142 
	C451.098694,283.132935 450.739471,283.176727 450.380249,283.220551 
	C448.683563,295.485321 446.986877,307.750092 445.241333,320.368317 
	C449.195557,320.368317 452.747253,320.368317 456.648346,320.368317 
	C456.415527,318.174896 456.209290,316.232178 455.884247,313.441101 
z"/>
<path fill="#070707" opacity="1.000000" stroke="none" 
	d="
M149.583679,169.773163 
	C154.024170,159.804901 162.753464,155.858231 173.607559,158.625305 
	C183.358353,161.111115 187.557663,168.595749 186.552673,182.409164 
	C184.660873,182.409164 182.717896,182.409164 180.774933,182.409164 
	C178.819046,182.409164 176.863159,182.409164 174.726227,182.409164 
	C174.464813,179.635727 174.911209,176.964005 173.861603,175.165176 
	C172.629303,173.053223 170.317459,170.770218 168.076279,170.239182 
	C164.867432,169.478897 162.404190,171.637405 161.826111,175.170700 
	C160.998703,180.227921 162.113968,184.860046 165.632309,188.600204 
	C169.729523,192.955765 174.109558,197.044540 178.346191,201.269821 
	C185.871124,208.774582 188.415176,217.885406 186.870438,228.240387 
	C185.219574,239.306824 178.097534,244.540619 165.388245,244.143677 
	C155.415558,243.832199 148.944168,237.511383 148.113129,227.108337 
	C147.902740,224.474655 148.081619,221.809891 148.081619,218.741638 
	C152.058289,218.741638 155.917725,218.741638 159.815613,218.741638 
	C160.145020,221.582825 160.352493,224.391815 160.820847,227.156616 
	C161.421066,230.700027 163.855957,232.075928 167.255981,232.136734 
	C170.801346,232.200134 172.959274,230.387497 173.659744,227.055099 
	C174.916031,221.078735 173.182861,215.786011 169.104233,211.407593 
	C165.595108,207.640549 161.713501,204.222839 158.048187,200.598480 
	C149.432419,192.078979 146.083298,182.047134 149.583679,169.773163 
z"/>
<path fill="#060606" opacity="1.000000" stroke="none" 
	d="
M242.522430,263.495605 
	C256.477356,265.758698 261.340118,274.447021 259.070099,292.693878 
	C255.356552,292.693878 251.595871,292.693878 247.030411,292.693878 
	C247.030411,289.695984 247.093643,286.612213 247.016281,283.531952 
	C246.884705,278.293365 244.788727,275.646271 240.781357,275.494080 
	C236.746994,275.340851 234.072815,277.950592 234.025391,283.001495 
	C233.876846,298.820557 233.943573,314.642090 234.005905,330.462372 
	C234.022644,334.710388 236.034943,337.675873 240.552094,337.626892 
	C245.012360,337.578522 246.998276,334.717682 247.007950,330.396545 
	C247.017258,326.238678 247.009964,322.080719 247.009964,317.504486 
	C251.122009,317.504486 255.011230,317.504486 259.778259,317.504486 
	C259.422485,323.821320 259.767609,330.381836 258.532898,336.630127 
	C256.697998,345.915619 248.594437,350.627075 237.890747,349.771881 
	C228.226776,348.999725 221.555405,342.877106 221.113297,333.209259 
	C220.596436,321.906891 220.878418,310.567657 220.829102,299.244354 
	C220.808075,294.414520 220.808701,289.584412 220.828949,284.754517 
	C220.891663,269.791687 227.235367,263.447510 242.522430,263.495605 
z"/>
<path fill="#050505" opacity="1.000000" stroke="none" 
	d="
M301.608704,159.391602 
	C314.905060,160.476486 320.582977,166.394073 320.798889,179.248489 
	C320.879761,184.063126 320.960663,188.947861 320.277863,193.690689 
	C318.834503,203.715942 312.710785,208.767303 302.536896,208.979248 
	C300.232666,209.027237 297.926605,208.986313 295.196198,208.986313 
	C295.196198,220.247955 295.196198,231.172989 295.196198,242.453644 
	C290.709717,242.453644 286.651062,242.453644 282.272186,242.453644 
	C282.272186,214.928741 282.272186,187.375351 282.272186,159.364258 
	C288.592377,159.364258 294.872406,159.364258 301.608704,159.391602 
M307.839539,180.891464 
	C306.745819,171.687820 303.833282,169.663483 295.396790,172.061279 
	C295.396790,180.347107 295.396790,188.575653 295.396790,196.981369 
	C296.774139,196.981369 297.766144,196.977493 298.758087,196.981964 
	C305.751526,197.013474 307.147156,195.796707 307.762024,188.768143 
	C307.964264,186.456558 307.825043,184.115112 307.839539,180.891464 
z"/>
<path fill="#060606" opacity="1.000000" stroke="none" 
	d="
M369.059998,184.000000 
	C369.059998,175.682693 369.059998,167.865387 369.059998,159.658813 
	C380.938690,159.658813 392.636932,159.658813 404.679474,159.658813 
	C404.679474,163.384338 404.679474,167.121460 404.679474,171.265594 
	C397.424042,171.265594 390.143982,171.265594 382.481506,171.265594 
	C382.481506,178.534592 382.481506,185.422043 382.481506,192.869965 
	C387.959930,192.869965 393.677368,192.869965 399.740601,192.869965 
	C399.740601,197.127136 399.740601,200.841690 399.740601,205.079895 
	C394.064148,205.079895 388.333771,205.079895 382.359039,205.079895 
	C382.359039,213.818359 382.359039,222.044235 382.359039,230.680893 
	C389.779114,230.680893 397.035339,230.680893 404.653809,230.680893 
	C404.653809,234.792191 404.653809,238.501282 404.653809,242.520508 
	C393.030273,242.520508 381.444519,242.520508 369.059998,242.520508 
	C369.059998,223.262939 369.059998,203.881470 369.059998,184.000000 
z"/>
<path fill="#050505" opacity="1.000000" stroke="none" 
	d="
M245.208923,53.960487 
	C256.840454,53.910351 267.988525,53.910351 279.528534,53.910351 
	C279.528534,57.804302 279.528534,61.516315 279.528534,65.848114 
	C272.240692,65.848114 264.861969,65.848114 257.280762,65.848114 
	C257.280762,73.364616 257.280762,80.276535 257.280762,87.702782 
	C263.171173,87.702782 268.897675,87.702782 274.826599,87.702782 
	C274.826599,91.819817 274.826599,95.431084 274.826599,99.545868 
	C269.120819,99.545868 263.383209,99.545868 257.356262,99.545868 
	C257.356262,108.263367 257.356262,116.483070 257.356262,125.177826 
	C264.718994,125.177826 271.964081,125.177826 279.560913,125.177826 
	C279.560913,129.200943 279.560913,132.770508 279.560913,136.761414 
	C268.027527,136.761414 256.318115,136.761414 244.298874,136.761414 
	C244.212402,136.033279 244.003677,135.092316 244.003021,134.151215 
	C243.985062,108.680092 243.978058,83.208931 244.019531,57.737854 
	C244.021561,56.495064 244.479736,55.253017 245.208923,53.960487 
z"/>
<path fill="#070707" opacity="1.000000" stroke="none" 
	d="
M536.137939,305.949341 
	C531.611084,292.181793 527.194275,278.806610 522.675720,265.123444 
	C527.538452,265.123444 531.843811,265.123444 536.749878,265.123444 
	C539.564758,274.625946 542.420349,284.265778 545.678223,295.263580 
	C548.210693,286.750031 550.376892,279.482269 552.534180,272.211853 
	C554.691162,264.942688 554.687317,264.942139 562.448181,264.961060 
	C563.927673,264.964661 565.407227,264.961548 567.343201,264.961548 
	C566.748230,267.111633 566.343262,268.856049 565.783936,270.549469 
	C562.604492,280.176147 559.949219,290.025940 556.039551,299.348602 
	C551.349182,310.532959 551.629150,322.041046 551.763062,333.672424 
	C551.816345,338.301727 551.771790,342.932190 551.771790,347.851562 
	C547.252808,347.851562 543.169678,347.851562 538.623230,347.851562 
	C538.623230,338.540955 538.873657,329.237823 538.516418,319.958099 
	C538.340820,315.396942 537.039673,310.879150 536.137939,305.949341 
z"/>
<path fill="#070707" opacity="1.000000" stroke="none" 
	d="
M290.643066,333.990448 
	C290.643036,338.798889 290.643036,343.109650 290.643036,347.786133 
	C286.313477,347.786133 282.253326,347.786133 277.713898,347.786133 
	C277.713898,324.454010 277.713898,301.039185 277.713898,277.149963 
	C273.021271,277.149963 268.784302,277.149963 264.213776,277.149963 
	C264.213776,272.957062 264.213776,269.223907 264.213776,265.181000 
	C277.347565,265.181000 290.593231,265.181000 304.149078,265.181000 
	C304.149078,268.882690 304.149078,272.623047 304.149078,276.809845 
	C299.833923,276.809845 295.585419,276.809845 290.643066,276.809845 
	C290.643066,295.992493 290.643066,314.742645 290.643066,333.990448 
z"/>
<path fill="#070707" opacity="1.000000" stroke="none" 
	d="
M173.464127,103.000305 
	C173.464096,114.619545 173.464096,125.738785 173.464096,137.014664 
	C168.998672,137.014664 165.035538,137.014664 160.638596,137.014664 
	C160.638596,113.450478 160.638596,90.031036 160.638596,66.148895 
	C155.975372,66.148895 151.729614,66.148895 147.139893,66.148895 
	C147.139893,61.971653 147.139893,58.239510 147.139893,54.198021 
	C160.249481,54.198021 173.494781,54.198021 187.013428,54.198021 
	C187.013428,57.910389 187.013428,61.666199 187.013428,65.853981 
	C182.709656,65.853981 178.460526,65.853981 173.464157,65.853981 
	C173.464157,78.347786 173.464157,90.424042 173.464127,103.000305 
z"/>
<path fill="#050505" opacity="1.000000" stroke="none" 
	d="
M362.322418,242.347351 
	C350.851746,242.654434 339.725311,242.654434 328.310181,242.654434 
	C328.310181,215.033920 328.310181,187.612289 328.310181,159.810760 
	C332.262421,159.810760 336.315918,159.810760 340.964844,159.810760 
	C340.964844,183.297516 340.964844,206.828430 340.964844,230.798035 
	C348.459747,230.798035 355.385529,230.798035 362.666656,230.798035 
	C362.666656,234.835495 362.666656,238.437881 362.322418,242.347351 
z"/>
<path fill="#070707" opacity="1.000000" stroke="none" 
	d="
M207.917114,171.035004 
	C207.917114,195.020233 207.917114,218.510574 207.917114,242.410645 
	C203.637833,242.410645 199.587524,242.410645 195.197845,242.410645 
	C195.197845,214.959549 195.197845,187.417450 195.197845,159.764908 
	C199.442688,159.764908 203.517670,159.764908 207.917114,159.764908 
	C207.917114,163.581039 207.917114,167.060577 207.917114,171.035004 
z"/>
<path fill="#030303" opacity="1.000000" stroke="none" 
	d="
M324.024780,320.000000 
	C324.024780,329.463226 324.024780,338.426453 324.024780,347.765808 
	C319.782684,347.765808 315.723663,347.765808 311.315796,347.765808 
	C311.315796,320.529541 311.315796,293.039185 311.315796,265.258789 
	C315.320892,265.258789 319.374878,265.258789 324.024780,265.258789 
	C324.024780,283.382904 324.024780,301.441437 324.024780,320.000000 
z"/>
<path fill="#060606" opacity="1.000000" stroke="none" 
	d="
M211.929504,307.000000 
	C211.929504,320.803375 211.929504,334.106720 211.929504,347.779602 
	C207.630798,347.779602 203.575439,347.779602 199.212036,347.779602 
	C199.212036,320.495575 199.212036,293.091003 199.212036,265.324158 
	C203.111206,265.324158 207.169113,265.324158 211.929504,265.324158 
	C211.929504,278.993500 211.929504,292.746765 211.929504,307.000000 
z"/>
<path fill="#B5B5B5" opacity="1.000000" stroke="none" 
	d="
M258.346863,190.023407 
	C258.398254,187.730835 258.724121,185.428986 259.050018,183.127121 
	C259.355072,183.156891 259.660156,183.186661 259.965210,183.216415 
	C259.965210,185.241165 259.965210,187.265930 259.835388,189.699387 
	C259.344208,190.076767 258.982788,190.045456 258.346863,190.023407 
z"/>
<path fill="#F0F0F0" opacity="1.000000" stroke="none" 
	d="
M496.959320,300.274170 
	C495.501190,299.399048 493.637604,298.554535 493.603912,297.642487 
	C493.354340,290.883514 493.468689,284.111084 493.468689,277.422119 
	C502.255096,276.092804 505.224762,277.602356 505.901733,283.439240 
	C507.340302,295.842712 505.439484,299.607025 496.959320,300.274170 
z"/>
<path fill="#F3F3F3" opacity="1.000000" stroke="none" 
	d="
M176.868225,284.549652 
	C176.933060,298.279083 176.972443,311.565186 176.963409,324.851288 
	C176.956284,335.353638 174.734116,337.225342 163.691223,335.849304 
	C163.691223,316.395050 163.691223,296.898163 163.691223,277.425812 
	C172.954605,275.910095 175.324844,277.135498 176.868225,284.549652 
z"/>
<path fill="#F8F8F8" opacity="1.000000" stroke="none" 
	d="
M359.772156,301.001587 
	C359.624481,311.316284 359.510040,321.132019 359.314148,330.946136 
	C359.225342,335.395447 356.732269,337.870056 352.392212,337.693298 
	C348.240509,337.524261 346.140900,334.690399 346.119080,330.675385 
	C346.032135,314.685608 346.031647,298.694885 346.097748,282.704956 
	C346.115295,278.456818 348.261658,275.555847 352.695496,275.510651 
	C356.767822,275.469116 359.169342,277.784485 359.285919,282.055664 
	C359.453735,288.204285 359.610626,294.353180 359.772156,301.001587 
z"/>
<path fill="#EEEEEE" opacity="1.000000" stroke="none" 
	d="
M455.943665,313.865265 
	C456.209290,316.232178 456.415527,318.174896 456.648346,320.368317 
	C452.747253,320.368317 449.195557,320.368317 445.241333,320.368317 
	C446.986877,307.750092 448.683563,295.485321 450.380249,283.220551 
	C450.739471,283.176727 451.098694,283.132935 451.457916,283.089142 
	C452.933380,293.206451 454.408813,303.323792 455.943665,313.865265 
z"/>
<path fill="#F6F6F6" opacity="1.000000" stroke="none" 
	d="
M307.840759,181.339386 
	C307.825043,184.115112 307.964264,186.456558 307.762024,188.768143 
	C307.147156,195.796707 305.751526,197.013474 298.758087,196.981964 
	C297.766144,196.977493 296.774139,196.981369 295.396790,196.981369 
	C295.396790,188.575653 295.396790,180.347107 295.396790,172.061279 
	C303.833282,169.663483 306.745819,171.687820 307.840759,181.339386 
z"/>
</svg>